<svg width="16" height="12" viewBox="0 0 16 12" fill="none" xmlns="http://www.w3.org/2000/svg">
<path d="M6.25814 5.99999C6.25814 5.03408 7.0339 4.25832 7.9998 4.25832C8.96571 4.25832 9.74147 5.03408 9.74147 5.99999C9.74147 6.96589 8.96571 7.74165 7.9998 7.74165C7.0339 7.74165 6.25814 6.96589 6.25814 5.99999ZM6.71647 5.99999C6.71647 6.70908 7.29071 7.28332 7.9998 7.28332C8.7089 7.28332 9.28314 6.70908 9.28314 5.99999C9.28314 5.29089 8.7089 4.71665 7.9998 4.71665C7.29071 4.71665 6.71647 5.29089 6.71647 5.99999Z" fill="#8F90A6" stroke="#8F90A6" stroke-width="0.666667"/>
<path d="M14.6504 6.43789L14.6631 6.41927L14.6731 6.39911C14.7951 6.15526 14.7951 5.84481 14.6731 5.60097L14.6631 5.5808L14.6504 5.56218C13.7218 4.2012 12.7766 3.21568 11.6953 2.57289C10.6095 1.92737 9.41068 1.6417 8 1.6417C6.58932 1.6417 5.39046 1.92737 4.30466 2.57289C3.22345 3.21568 2.27816 4.2012 1.34965 5.56218L1.34963 5.56217L1.34765 5.56514C1.17301 5.8271 1.17301 6.17297 1.34765 6.43494L1.34763 6.43495L1.34965 6.43789C2.27816 7.79887 3.22345 8.78439 4.30466 9.42718C5.39046 10.0727 6.58932 10.3584 8 10.3584C9.41068 10.3584 10.6095 10.0727 11.6953 9.42718C12.7766 8.78439 13.7218 7.79887 14.6504 6.43789ZM8 1.18337C9.88299 1.18337 11.2854 1.70064 12.3883 2.46467C13.4973 3.23287 14.3195 4.26152 15.0228 5.31012C15.2955 5.7194 15.3009 6.24954 15.0213 6.69213C14.318 7.72806 13.4961 8.75568 12.3878 9.52637C11.2844 10.2937 9.88211 10.8167 8 10.8167C6.11789 10.8167 4.71558 10.2937 3.61219 9.52637C2.50285 8.75492 1.68039 7.72604 0.976641 6.68907C0.702075 6.27627 0.702231 5.72294 0.977108 5.3103C1.68036 4.26164 2.50268 3.23291 3.61169 2.46467C4.71463 1.70064 6.11701 1.18337 8 1.18337Z" fill="#8F90A6" stroke="#8F90A6" stroke-width="0.666667"/>
</svg>
