<svg width="24" height="20" viewBox="0 0 24 20" fill="none" xmlns="http://www.w3.org/2000/svg">
<path d="M23.2504 10.375C23.3629 10.15 23.3629 9.85 23.2504 9.625C23.1004 9.325 19.4254 2.275 12.0004 2.275C10.3504 2.275 8.73789 2.65 7.23789 3.325C7.05039 3.4 6.90039 3.475 6.75039 3.5875L4.08789 0.925C3.75039 0.5875 3.22539 0.5875 2.88789 0.925C2.55039 1.2625 2.55039 1.7875 2.88789 2.125L19.8754 19.075C20.0254 19.225 20.2504 19.3375 20.4754 19.3375C20.7004 19.3375 20.9254 19.2625 21.0754 19.075C21.4129 18.7375 21.4129 18.2125 21.0754 17.875L18.7129 15.5125C18.7504 15.475 18.7504 15.475 18.7879 15.4375C21.7504 13.3375 23.1754 10.4875 23.2504 10.375ZM13.4629 10.2625L11.7379 8.5375C11.8129 8.5375 11.9254 8.5 12.0004 8.5C12.8254 8.5 13.5004 9.175 13.5004 10C13.5004 10.075 13.4629 10.1875 13.4629 10.2625ZM14.7754 11.575C14.8879 11.3875 14.9629 11.1625 15.0379 10.975C15.1504 10.675 15.1879 10.3375 15.1879 10.0375C15.1879 8.275 13.7629 6.85 12.0004 6.85C11.7379 6.85 11.4379 6.8875 11.1754 6.9625L11.0254 7C10.8004 7.075 10.6129 7.15 10.3879 7.2625L7.95039 4.8625C9.22539 4.2625 10.5379 3.9625 11.9254 3.9625C17.4004 3.9625 20.6254 8.65 21.4504 10.0375C20.9629 10.825 19.7254 12.7 17.7379 14.125C17.6254 14.2 17.5129 14.275 17.4379 14.35L14.7754 11.575Z" fill="#8F90A6"/>
<path d="M12.0004 16.075C6.52539 16.075 3.30039 11.3875 2.47539 10C2.85039 9.36255 3.71289 8.08755 5.02539 6.85005L3.86289 5.61255C1.83789 7.52505 0.787891 9.55005 0.750391 9.62505C0.637891 9.85005 0.637891 10.15 0.750391 10.375C0.900391 10.675 4.57539 17.725 12.0004 17.725C13.0129 17.725 14.0254 17.575 15.0004 17.3125L14.5504 15.7C13.7254 15.925 12.8629 16.075 12.0004 16.075Z" fill="#8F90A6"/>
</svg>
