<svg width="12" height="12" viewBox="0 0 12 12" fill="none" xmlns="http://www.w3.org/2000/svg">
<path d="M0.2358 0C0.1056 0 0 0.11316 0 0.2526V8.7474C0 8.88684 0.1056 8.99988 0.2358 9H5.27256C5.09207 8.84804 4.92696 8.67871 4.7796 8.49444H4.278C4.3452 8.3466 4.4094 8.19588 4.47192 8.04324C4.433 7.97474 4.39642 7.90494 4.36224 7.83396C4.27504 8.05703 4.18083 8.2773 4.07976 8.49444H3.54816C3.7314 8.1174 3.89856 7.73028 4.03968 7.32072C3.75936 7.08996 3.58008 6.74064 3.58008 6.35136C3.58008 6.02112 3.71004 5.7204 3.9204 5.49564C3.2112 3.91044 1.9302 3.09564 0.47184 2.22984V1.66896C1.97388 2.55504 3.40752 3.40152 4.24284 5.0604C4.27036 4.98728 4.30028 4.91516 4.3326 4.84404C3.44556 3.1908 1.9698 2.3424 0.47184 1.45896V1.284C2.24868 2.46444 3.78552 3.07788 5.46888 3.45696C6.02952 3.054 6.70776 2.81376 7.39968 2.79384C7.49419 2.79092 7.58879 2.79172 7.68324 2.79624C7.89876 2.56572 8.1156 2.334 8.33676 2.09784C8.52732 1.89408 8.71536 1.68996 8.90436 1.48584C8.8854 1.4826 8.874 1.48116 8.85372 1.47756C8.57549 1.42771 8.2982 1.37274 8.022 1.31268C7.35684 1.1694 6.50004 0.96264 5.63436 0.70908C5.41345 0.64427 5.19343 0.576463 4.97436 0.50568H6.70872C7.17777 0.627877 7.64927 0.740461 8.12292 0.84336C8.45052 0.91392 8.73012 0.96852 8.937 1.00488C9.04032 1.023 9.12564 1.03668 9.18792 1.0452C9.2502 1.05372 9.30204 1.0554 9.28332 1.056L9.28404 1.07496C9.45588 0.886499 9.62629 0.696734 9.79524 0.50568H10.4351C9.8988 1.12488 9.29352 1.77816 8.6874 2.42592C8.54616 2.57676 8.4102 2.72316 8.27088 2.87232C8.36216 2.89192 8.45256 2.91512 8.54208 2.94192C9.60552 3.24924 10.4868 4.10028 10.8457 5.1456C11.0303 5.2536 11.1925 5.34768 11.3068 5.40384C11.3014 5.43404 11.3027 5.46503 11.3107 5.49466C11.3186 5.52428 11.3329 5.55181 11.3526 5.57532C11.3723 5.59882 11.3969 5.61773 11.4247 5.6307C11.4524 5.64368 11.4827 5.65042 11.5134 5.65044C11.5186 5.65044 11.5232 5.64864 11.5282 5.64828V6.07188C11.5234 6.07152 11.5186 6.07044 11.5134 6.07044H11.5118C11.4561 6.07065 11.4028 6.09297 11.3636 6.1325C11.3243 6.17203 11.3024 6.22552 11.3026 6.28122C11.3028 6.33692 11.3251 6.39025 11.3647 6.42948C11.4042 6.46872 11.4577 6.49065 11.5134 6.49044C11.5184 6.49044 11.5232 6.48936 11.5282 6.489V6.91188C11.5234 6.91152 11.5186 6.91044 11.5134 6.91044C11.4577 6.91044 11.4043 6.93257 11.3649 6.97195C11.3255 7.01133 11.3034 7.06474 11.3034 7.12044C11.3034 7.17614 11.3255 7.22955 11.3649 7.26893C11.4043 7.30832 11.4577 7.33044 11.5134 7.33044C11.5184 7.33044 11.5232 7.32936 11.5282 7.329V8.49456H10.366C10.4004 8.5188 10.4334 8.54496 10.4629 8.57496C10.5733 8.71572 10.681 8.85852 10.7902 9.00012H11.7642C11.8944 9.00012 12 8.88696 12 8.74752V0.2526C12 0.11316 11.8944 0.00012 11.7642 0H0.2358ZM2.92476 0.50556H4.41096C4.79856 0.641073 5.18961 0.766515 5.58372 0.88176C6.45492 1.13688 7.31532 1.34448 7.9842 1.48848C8.19708 1.53432 8.38104 1.57092 8.54952 1.60332C8.4342 1.7274 8.32104 1.85112 8.20548 1.9746L8.07864 2.11008C7.29948 1.86612 6.40812 1.62336 5.26176 1.383C4.45296 1.21356 3.67332 0.90732 2.92476 0.50556ZM7.45236 0.50556H9.552C9.4446 0.62604 9.3396 0.7452 9.22776 0.86808C9.22176 0.86748 9.21852 0.8676 9.2124 0.86676C9.13074 0.855064 9.04928 0.841942 8.96808 0.8274C8.76444 0.79152 8.48652 0.7374 8.16096 0.66732C7.92425 0.615859 7.68795 0.561936 7.45236 0.50556ZM10.674 0.50556H11.5284V1.03176C11.5234 1.0314 11.5186 1.03032 11.5135 1.03032H11.512C11.4563 1.03053 11.4029 1.05285 11.3637 1.09238C11.3245 1.13191 11.3025 1.1854 11.3027 1.2411C11.3029 1.2968 11.3253 1.35013 11.3648 1.38936C11.4043 1.4286 11.4578 1.45053 11.5135 1.45032C11.5186 1.45032 11.5234 1.44924 11.5283 1.44888V1.87176C11.5235 1.8714 11.5187 1.87032 11.5135 1.87032H11.512C11.4844 1.87042 11.4571 1.87596 11.4317 1.8866C11.4062 1.89725 11.3831 1.91281 11.3637 1.93238C11.3443 1.95195 11.3289 1.97516 11.3184 2.00068C11.308 2.02619 11.3026 2.05352 11.3027 2.0811C11.3028 2.10868 11.3084 2.13597 11.319 2.1614C11.3297 2.18684 11.3452 2.20994 11.3648 2.22936C11.3844 2.24879 11.4076 2.26417 11.4331 2.27463C11.4586 2.28509 11.4859 2.29042 11.5135 2.29032C11.5186 2.29032 11.5234 2.28924 11.5283 2.28888V2.71176C11.5235 2.7114 11.5187 2.71032 11.5135 2.71032C11.4578 2.71032 11.4044 2.73245 11.365 2.77183C11.3256 2.81121 11.3035 2.86462 11.3035 2.92032C11.3035 2.97602 11.3256 3.02943 11.365 3.06881C11.4044 3.1082 11.4578 3.13032 11.5135 3.13032C11.5186 3.13032 11.5234 3.12924 11.5283 3.12888V3.28428C11.4334 3.25416 11.3365 3.22404 11.244 3.1938C11.2204 3.16957 11.1912 3.15141 11.159 3.14088C11.1268 3.13035 11.0926 3.12776 11.0592 3.13332C10.9823 3.10776 10.9084 3.08232 10.8331 3.05676C10.8554 3.03072 10.8709 2.99963 10.8784 2.9662C10.8859 2.93277 10.8851 2.89801 10.8761 2.86496C10.8671 2.83191 10.8501 2.80156 10.8267 2.77658C10.8032 2.75159 10.774 2.73272 10.7416 2.72161C10.7092 2.7105 10.6746 2.70749 10.6407 2.71285C10.6069 2.7182 10.5749 2.73175 10.5475 2.75231C10.5201 2.77288 10.4981 2.79984 10.4835 2.83084C10.4689 2.86184 10.4621 2.89594 10.4638 2.93016C10.2926 2.87028 10.1251 2.8104 9.95712 2.75064C9.92414 2.72658 9.88485 2.71265 9.84408 2.71056C9.75888 2.6802 9.67212 2.64972 9.58656 2.61936C9.61793 2.57387 9.6301 2.51785 9.62044 2.46344C9.61078 2.40904 9.58007 2.36063 9.53496 2.32872L9.34344 2.53392C9.2178 2.48952 9.08436 2.44536 8.95584 2.4012C9.55584 1.75968 10.1502 1.11648 10.674 0.50556ZM11.2812 0.72636C11.1425 0.76068 11.0248 0.82092 10.9046 0.91176C10.9163 0.937286 10.933 0.96021 10.9537 0.979177C10.9744 0.998143 10.9987 1.01277 11.0251 1.02218C11.0516 1.0316 11.0797 1.03562 11.1077 1.034C11.1357 1.03238 11.1631 1.02516 11.1883 1.01276C11.2135 1.00037 11.236 0.983044 11.2543 0.961822C11.2727 0.9406 11.2866 0.915908 11.2953 0.889206C11.304 0.862505 11.3072 0.834336 11.3048 0.806365C11.3024 0.778395 11.2943 0.75119 11.2812 0.72636ZM10.7508 1.04508C10.6569 1.13296 10.5661 1.2241 10.4786 1.31832C10.4916 1.35063 10.5123 1.37922 10.539 1.40153C10.5657 1.42384 10.5975 1.43917 10.6316 1.44614C10.6657 1.45311 10.701 1.4515 10.7343 1.44145C10.7676 1.43141 10.7979 1.41324 10.8224 1.38859C10.847 1.36394 10.865 1.33358 10.8749 1.30023C10.8849 1.26687 10.8863 1.23158 10.8792 1.19752C10.8721 1.16346 10.8567 1.1317 10.8343 1.10509C10.8118 1.07849 10.7832 1.05786 10.7508 1.04508ZM11.0921 1.45032C11.0645 1.45053 11.0372 1.45618 11.0118 1.46693C10.9864 1.47768 10.9634 1.49332 10.9441 1.51297C10.905 1.55266 10.8833 1.60624 10.8837 1.66194C10.8841 1.71764 10.9067 1.77088 10.9464 1.80996C10.986 1.84904 11.0396 1.87075 11.0953 1.87032C11.151 1.86989 11.2043 1.84735 11.2433 1.80767C11.2824 1.76798 11.3041 1.7144 11.3037 1.6587C11.3033 1.603 11.2807 1.54976 11.241 1.51068C11.2014 1.4716 11.1478 1.44989 11.0921 1.45032ZM10.3385 1.46808L10.0678 1.758C10.0834 1.78765 10.1059 1.81313 10.1333 1.83232C10.1608 1.8515 10.1925 1.86384 10.2257 1.86829C10.2589 1.87274 10.2927 1.86918 10.3242 1.8579C10.3558 1.84663 10.3842 1.82796 10.4071 1.80347C10.4299 1.77898 10.4466 1.74937 10.4557 1.71712C10.4648 1.68487 10.466 1.65091 10.4593 1.61808C10.4526 1.58525 10.4381 1.5545 10.4171 1.52841C10.3961 1.50231 10.3691 1.48163 10.3385 1.46808ZM10.6721 1.87032C10.6445 1.87053 10.6172 1.87618 10.5918 1.88693C10.5664 1.89768 10.5434 1.91332 10.5241 1.93297C10.5047 1.95262 10.4894 1.97589 10.4791 2.00145C10.4687 2.02701 10.4635 2.05436 10.4637 2.08194C10.4639 2.10952 10.4696 2.13678 10.4803 2.16218C10.4911 2.18758 10.5067 2.21061 10.5264 2.22996C10.546 2.24931 10.5693 2.2646 10.5948 2.27495C10.6204 2.28531 10.6477 2.29053 10.6753 2.29032C10.731 2.28989 10.7843 2.26735 10.8233 2.22767C10.8624 2.18798 10.8841 2.1344 10.8837 2.0787C10.8833 2.023 10.8607 1.96976 10.821 1.93068C10.7814 1.8916 10.7278 1.86989 10.6721 1.87032ZM9.93756 1.89768L9.6588 2.19636C9.67634 2.22279 9.69964 2.2449 9.72694 2.26104C9.75425 2.27717 9.78486 2.28691 9.81647 2.28953C9.84808 2.29214 9.87987 2.28756 9.90946 2.27613C9.93904 2.2647 9.96566 2.24671 9.9873 2.22353C10.0089 2.20034 10.025 2.17255 10.0344 2.14224C10.0438 2.11194 10.0462 2.07991 10.0414 2.04855C10.0366 2.0172 10.0248 1.98733 10.0068 1.9612C9.9888 1.93507 9.96513 1.91336 9.93756 1.89768ZM10.252 2.29032C10.1963 2.29077 10.143 2.31332 10.104 2.35302C10.0649 2.39271 10.0432 2.4463 10.0436 2.502C10.0441 2.5577 10.0666 2.61093 10.1063 2.65C10.146 2.68907 10.1996 2.71077 10.2553 2.71032C10.311 2.70989 10.3643 2.68735 10.4033 2.64767C10.4424 2.60798 10.4641 2.5544 10.4637 2.4987C10.4633 2.443 10.4407 2.38976 10.401 2.35068C10.3614 2.3116 10.3077 2.28989 10.252 2.29032ZM11.0921 2.29032C11.0645 2.29054 11.0372 2.29619 11.0118 2.30695C10.9865 2.31771 10.9634 2.33336 10.9441 2.35302C10.9247 2.37267 10.9095 2.39595 10.8991 2.42151C10.8888 2.44707 10.8835 2.47442 10.8838 2.502C10.884 2.52958 10.8896 2.55684 10.9004 2.58224C10.9111 2.60763 10.9268 2.63066 10.9465 2.65C10.9661 2.66934 10.9894 2.68463 11.0149 2.69498C11.0405 2.70533 11.0679 2.71054 11.0954 2.71032C11.1511 2.70989 11.2044 2.68735 11.2435 2.64767C11.2825 2.60798 11.3042 2.5544 11.3038 2.4987C11.3034 2.443 11.2809 2.38976 11.2412 2.35068C11.2015 2.3116 11.1478 2.28989 11.0921 2.29032ZM0.4722 2.44008C1.84956 3.26088 3.03072 4.03284 3.70992 5.46684C3.51708 5.7114 3.40056 6.01848 3.40056 6.35124C3.40056 6.7494 3.5664 7.1112 3.8316 7.37232C3.69192 7.7616 3.528 8.13192 3.34872 8.49444H2.82936L3.15936 7.923L2.80872 7.72056L2.93364 7.50396L2.448 7.22364L1.7142 8.49444H0.47172V4.2984L1.3938 4.84824L1.96716 3.88692L0.47184 2.99508L0.4722 2.44008ZM7.0392 4.49016C6.91091 4.52546 6.78665 4.574 6.6684 4.635L6.66816 4.63524C6.33288 5.02584 6.05772 5.3724 5.877 5.65104C6.01704 5.85774 6.09186 6.10169 6.0918 6.35136C6.0918 6.56652 6.03696 6.76944 5.94048 6.94692C6.31632 7.2408 6.6192 7.63668 6.88968 8.07708C6.97288 8.10748 7.05808 8.13152 7.14528 8.1492C6.87 7.67616 6.5604 7.23684 6.16308 6.89556C6.24577 6.69696 6.28212 6.48213 6.26937 6.26739C6.25663 6.05264 6.19512 5.84362 6.08952 5.6562C6.30372 5.34528 6.64212 4.94016 7.0392 4.49016ZM8.06436 4.50024C8.05492 4.59701 8.05564 4.6945 8.06652 4.79112C8.09691 4.80492 8.13016 4.81126 8.16349 4.80961C8.19683 4.80795 8.22929 4.79835 8.25816 4.78161C8.28703 4.76486 8.31149 4.74146 8.32948 4.71335C8.34747 4.68524 8.35849 4.65323 8.3616 4.62C8.26572 4.572 8.16636 4.53132 8.064 4.50024M2.18376 4.78704L1.749 5.54016L1.45728 6.04536L2.21028 6.48024L2.50212 5.97492L2.80116 6.14772L3.23592 5.3946L2.93688 5.2218L2.18376 4.78704ZM8.57196 4.81032C8.54438 4.81053 8.51712 4.81618 8.49172 4.82693C8.46632 4.83768 8.44329 4.85332 8.42394 4.87297C8.40459 4.89262 8.3893 4.91589 8.37895 4.94145C8.36859 4.96701 8.36337 4.99436 8.36358 5.02194C8.36379 5.04952 8.36944 5.07678 8.38019 5.10218C8.39093 5.12758 8.40658 5.15061 8.42623 5.16996C8.44588 5.18931 8.46915 5.2046 8.49471 5.21495C8.52027 5.22531 8.54762 5.23053 8.5752 5.23032C8.6309 5.22989 8.68414 5.20735 8.72322 5.16767C8.7623 5.12798 8.78401 5.0744 8.78358 5.0187C8.78315 4.963 8.76061 4.90976 8.72093 4.87068C8.68124 4.8316 8.62766 4.80989 8.57196 4.81032ZM8.99196 5.23032C8.96438 5.23042 8.93709 5.23596 8.91166 5.2466C8.88622 5.25725 8.86312 5.27281 8.8437 5.29238C8.82427 5.31195 8.80889 5.33516 8.79843 5.36068C8.78797 5.3862 8.78264 5.41352 8.78274 5.4411C8.78284 5.46868 8.78837 5.49597 8.79902 5.5214C8.80967 5.54684 8.82523 5.56994 8.8448 5.58936C8.86437 5.60879 8.88758 5.62417 8.9131 5.63463C8.93861 5.64509 8.96594 5.65042 8.99352 5.65032C9.10692 5.65032 9.19872 5.56032 9.2028 5.44776C9.16905 5.38107 9.13118 5.31654 9.0894 5.25456C9.05945 5.23849 9.02595 5.23016 8.99196 5.23032ZM8.1864 5.23284C8.18796 5.23656 8.1888 5.24016 8.1906 5.24388C8.1883 5.37908 8.18274 5.51419 8.17392 5.64912C8.22465 5.64404 8.27181 5.62067 8.30658 5.58338C8.34135 5.54609 8.36137 5.49742 8.3629 5.44646C8.36442 5.39549 8.34736 5.34571 8.31488 5.30641C8.28241 5.2671 8.23674 5.24095 8.1864 5.23284ZM8.57196 5.65032C8.54438 5.65053 8.51712 5.65618 8.49172 5.66693C8.46632 5.67768 8.44329 5.69332 8.42394 5.71297C8.40459 5.73262 8.3893 5.75589 8.37895 5.78145C8.36859 5.80701 8.36337 5.83436 8.36358 5.86194C8.36379 5.88952 8.36944 5.91678 8.38019 5.94218C8.39093 5.96758 8.40658 5.99061 8.42623 6.00996C8.44588 6.02931 8.46915 6.0446 8.49471 6.05496C8.52027 6.06531 8.54762 6.07053 8.5752 6.07032C8.6309 6.06989 8.68414 6.04735 8.72322 6.00767C8.7623 5.96798 8.78401 5.9144 8.78358 5.8587C8.78315 5.803 8.76061 5.74976 8.72093 5.71068C8.68124 5.6716 8.62766 5.64989 8.57196 5.65032ZM11.092 5.65032C11.0545 5.65076 11.0178 5.66129 10.9858 5.6808C11.0078 5.80632 11.0236 5.9328 11.0317 6.06C11.0514 6.066 11.0719 6.07032 11.0935 6.07032C11.1492 6.07011 11.2025 6.04779 11.2418 6.00826C11.281 5.96873 11.3029 5.91524 11.3027 5.85954C11.3025 5.80384 11.2802 5.75051 11.2407 5.71128C11.2012 5.67204 11.1477 5.65011 11.092 5.65032ZM9.30408 5.68176C9.27338 5.70037 9.248 5.72658 9.23039 5.75785C9.21277 5.78913 9.20352 5.82442 9.20352 5.86032C9.20352 5.96988 9.28776 6.0588 9.3948 6.0684C9.37872 5.9366 9.3483 5.80695 9.30408 5.68176ZM8.99196 6.07032C8.96438 6.07053 8.93712 6.07618 8.91172 6.08693C8.88632 6.09768 8.86329 6.11332 8.84394 6.13297C8.82459 6.15262 8.8093 6.17589 8.79895 6.20145C8.78859 6.22701 8.78337 6.25436 8.78358 6.28194C8.78379 6.30952 8.78944 6.33678 8.80019 6.36218C8.81094 6.38758 8.82658 6.41061 8.84623 6.42996C8.86588 6.44931 8.88915 6.4646 8.91471 6.47495C8.94027 6.48531 8.96762 6.49053 8.9952 6.49032C9.05089 6.48989 9.10414 6.46735 9.14322 6.42767C9.1823 6.38798 9.20401 6.3344 9.20358 6.2787C9.20315 6.223 9.18061 6.16976 9.14093 6.13068C9.10124 6.0916 9.04766 6.06989 8.99196 6.07032ZM8.18868 6.07308C8.21556 6.1398 8.26764 6.19248 8.36196 6.25476C8.3565 6.20985 8.33668 6.16791 8.30546 6.13517C8.27424 6.10244 8.23328 6.08066 8.18868 6.07308ZM11.092 6.49032C11.0716 6.49066 11.0513 6.49406 11.032 6.5004C11.0246 6.62818 11.0104 6.75549 10.9895 6.88176C11.0203 6.8994 11.0555 6.91032 11.0935 6.91032C11.1211 6.91022 11.1484 6.90468 11.1738 6.89404C11.1993 6.88339 11.2224 6.86783 11.2418 6.84826C11.2612 6.82869 11.2766 6.80548 11.2871 6.77996C11.2975 6.75445 11.3028 6.72712 11.3027 6.69954C11.3026 6.67196 11.2971 6.64468 11.2865 6.61924C11.2758 6.5938 11.2603 6.5707 11.2407 6.55128C11.2211 6.53185 11.1979 6.51647 11.1724 6.50601C11.1469 6.49555 11.1195 6.49022 11.092 6.49032ZM9.39948 6.49176C9.34645 6.49517 9.2967 6.51861 9.26031 6.55734C9.22393 6.59607 9.20362 6.64718 9.20352 6.70032C9.20352 6.78192 9.25044 6.85188 9.31836 6.88668C9.35916 6.75828 9.38628 6.6258 9.39948 6.49176ZM7.89744 6.70308C7.51008 6.70308 7.1922 7.02108 7.1922 7.40832C7.1922 7.79568 7.5102 8.11332 7.89744 8.11332C8.28468 8.11332 8.60244 7.79568 8.60244 7.40832C8.60244 7.02108 8.28468 6.70308 7.89744 6.70308ZM7.89744 7.06308C7.94286 7.06274 7.98789 7.07145 8.02992 7.08868C8.07194 7.10592 8.11012 7.13134 8.14223 7.16347C8.17433 7.19559 8.19973 7.23379 8.21693 7.27583C8.23414 7.31786 8.24281 7.3629 8.24244 7.40832C8.24284 7.45374 8.23419 7.49878 8.21699 7.54082C8.1998 7.58286 8.1744 7.62105 8.14228 7.65316C8.11017 7.68528 8.07198 7.71068 8.02994 7.72787C7.9879 7.74507 7.94286 7.75372 7.89744 7.75332C7.85202 7.75369 7.80698 7.74502 7.76494 7.72781C7.72291 7.71061 7.68471 7.68521 7.65259 7.65311C7.62046 7.621 7.59503 7.58282 7.5778 7.5408C7.56057 7.49877 7.55186 7.45374 7.5522 7.40832C7.55185 7.36288 7.56054 7.31783 7.57776 7.27579C7.59499 7.23374 7.62041 7.19554 7.65253 7.16342C7.68466 7.13129 7.72286 7.10587 7.76491 7.08864C7.80695 7.07142 7.852 7.06273 7.89744 7.06308Z" fill="#8F90A6"/>
<path d="M7.93548 3.2994C7.16484 3.195 6.35448 3.38364 5.68908 3.8904C4.35828 4.90368 4.09944 6.81432 5.11284 8.14512C6.06144 9.39072 7.79365 9.69108 9.10285 8.89356L9.35281 9.22188C9.32848 9.27848 9.31702 9.33456 9.31921 9.38623C9.32141 9.43791 9.33721 9.48394 9.36552 9.52116L11.1799 11.9038C11.2318 11.9719 11.3223 12.0061 11.4315 11.9991C11.5406 11.992 11.6596 11.9442 11.7622 11.8661C11.813 11.8274 11.8582 11.7825 11.8953 11.7338C11.9324 11.6852 11.9607 11.6338 11.9784 11.5826C11.9962 11.5314 12.0031 11.4814 11.9989 11.4354C11.9946 11.3894 11.9791 11.3484 11.9534 11.3147L10.139 8.93208C10.1107 8.8949 10.0705 8.86744 10.0213 8.85159C9.97205 8.83574 9.91495 8.83188 9.85392 8.84028L9.60385 8.51184C10.721 7.46184 10.8923 5.71224 9.94381 4.46664C9.43705 3.80112 8.70612 3.4038 7.93548 3.2994ZM7.84548 3.96384C8.153 4.00537 8.44927 4.10729 8.71726 4.26372C8.98525 4.42015 9.21967 4.62802 9.40704 4.87536C9.59556 5.12182 9.73354 5.40308 9.81306 5.70301C9.89258 6.00293 9.91208 6.31561 9.87043 6.62309C9.82879 6.93057 9.72682 7.2268 9.57038 7.49477C9.41395 7.76274 9.20612 7.99717 8.95885 8.1846C8.71239 8.3731 8.43114 8.51106 8.13122 8.59057C7.83131 8.67008 7.51864 8.68957 7.21118 8.64793C6.90371 8.60628 6.6075 8.50432 6.33954 8.3479C6.07158 8.19147 5.83716 7.98366 5.64972 7.7364C5.46122 7.48995 5.32325 7.2087 5.24373 6.90879C5.16421 6.60889 5.14471 6.29622 5.18634 5.98876C5.22797 5.68129 5.32992 5.38508 5.48634 5.11711C5.64275 4.84915 5.85055 4.61472 6.0978 4.42728C6.34414 4.23856 6.62538 4.10045 6.92533 4.02091C7.22528 3.94137 7.53801 3.92198 7.84548 3.96384Z" fill="#8F90A6"/>
</svg>
