<svg width="12" height="12" viewBox="0 0 12 12" fill="none" xmlns="http://www.w3.org/2000/svg">
<path d="M6 0C2.688 0 0 2.688 0 6C0 9.312 2.688 12 6 12C9.312 12 12 9.312 12 6C12 2.688 9.312 0 6 0ZM6 10.8C3.354 10.8 1.2 8.646 1.2 6C1.2 3.354 3.354 1.2 6 1.2C8.646 1.2 10.8 3.354 10.8 6C10.8 8.646 8.646 10.8 6 10.8ZM2.7 9.3L7.206 7.206L9.3 2.7L4.794 4.794L2.7 9.3ZM6 5.34C6.366 5.34 6.66 5.634 6.66 6C6.66 6.366 6.366 6.66 6 6.66C5.634 6.66 5.34 6.366 5.34 6C5.34 5.634 5.634 5.34 6 5.34Z" fill="#8F90A6"/>
</svg>
